<?xml version="1.0" encoding="UTF-8"?>
<svg xmlns="http://www.w3.org/2000/svg" xmlns:xlink="http://www.w3.org/1999/xlink" width="3000" height="3000" viewBox="0 0 3000 3000">
<title>Learning, Discovering, and Connecting</title>
<rect x="-300" y="-300" width="2000" height="2000" fill="rgb(99.609375%, 99.609375%, 99.609375%)" fill-opacity="0"/>
<path fill-rule="nonzero" fill="rgb(43.138123%, 21.166992%, 81.639099%)" fill-opacity="1" d="M 1263.050781 1889.351562 L 1261.039062 1888.070312 C 1251.878906 1882.320312 1252.789062 1882.550781 1263.789062 1888.769531 C 1272.410156 1893.601562 1302.648438 1911 1354.519531 1940.980469 L 1594.230469 1878.21875 L 1653.378906 1856.988281 L 1263.050781 1889.351562 "/>
<path fill-rule="nonzero" fill="rgb(60.351562%, 39.208984%, 94.139099%)" fill-opacity="1" d="M 802.539062 1559.609375 L 681.125 1617.238281 L 928.484375 1750.789062 L 802.539062 1559.609375 "/>
<path fill-rule="nonzero" fill="rgb(49.414062%, 28.24707%, 84.375%)" fill-opacity="1" d="M 1346.359375 2151.03125 L 1776.941406 2017.949219 L 2207.53125 1884.859375 C 2212.058594 1862.890625 2216.589844 1840.910156 2221.109375 1818.929688 C 2052.371094 1828.410156 1883.621094 1837.890625 1714.878906 1847.371094 C 1590.5 1877.96875 1466.121094 1908.570312 1341.75 1939.171875 L 1346.359375 2151.03125 "/>
<path fill-rule="nonzero" fill="rgb(48.242188%, 29.026794%, 0%)" fill-opacity="1" d="M 678.675781 1611.929688 L 942.179688 1746.480469 C 945.707031 1748.28125 947.109375 1752.601562 945.308594 1756.128906 C 943.503906 1759.660156 939.183594 1761.058594 935.65625 1759.261719 L 672.148438 1624.710938 C 668.621094 1622.910156 667.21875 1618.589844 669.023438 1615.058594 C 670.824219 1611.53125 675.144531 1610.128906 678.675781 1611.929688 Z M 678.675781 1611.929688 "/>
<path fill-rule="nonzero" fill="rgb(48.242188%, 29.026794%, 0%)" fill-opacity="1" d="M 674.503906 1610.769531 L 797.449219 1553.308594 C 801.039062 1551.621094 805.308594 1553.179688 806.988281 1556.769531 C 808.664062 1560.359375 807.117188 1564.621094 803.527344 1566.300781 L 680.582031 1623.761719 C 676.992188 1625.441406 672.722656 1623.890625 671.042969 1620.300781 C 669.367188 1616.710938 670.917969 1612.441406 674.503906 1610.769531 Z M 674.503906 1610.769531 "/>
<path fill-rule="nonzero" fill="rgb(48.242188%, 29.026794%, 0%)" fill-opacity="1" d="M 704.972656 1634.570312 L 714.570312 1807.058594 C 714.792969 1811.011719 711.761719 1814.390625 707.808594 1814.621094 C 703.851562 1814.839844 700.464844 1811.808594 700.246094 1807.851562 L 690.648438 1635.371094 C 690.429688 1631.410156 693.457031 1628.03125 697.414062 1627.808594 C 701.367188 1627.589844 704.753906 1630.609375 704.972656 1634.570312 Z M 704.972656 1634.570312 "/>
<path fill-rule="nonzero" fill="rgb(48.242188%, 29.026794%, 0%)" fill-opacity="1" d="M 671.289062 1813.480469 L 1347.25 2149.714844 L 1341.988281 2149.265625 L 1477.550781 2108.453125 L 1477.460938 2108.480469 L 2204.960938 1879.328125 L 2200.261719 1884.058594 L 2220.78125 1817.558594 C 2221.949219 1813.769531 2225.96875 1811.648438 2229.75 1812.820312 C 2233.539062 1813.980469 2235.660156 1818 2234.488281 1821.78125 L 2213.96875 1888.289062 C 2213.269531 1890.539062 2211.519531 1892.308594 2209.269531 1893.019531 L 1481.769531 2122.164062 L 1481.691406 2122.191406 L 1346.128906 2163.003906 C 1344.378906 2163.53125 1342.5 2163.371094 1340.859375 2162.558594 L 664.898438 1826.320312 C 661.351562 1824.558594 659.90625 1820.25 661.667969 1816.699219 C 663.433594 1813.160156 667.738281 1811.710938 671.289062 1813.480469 Z M 671.289062 1813.480469 "/>
<path fill-rule="nonzero" fill="rgb(48.242188%, 29.026794%, 0%)" fill-opacity="1" d="M 1337.558594 2145.476562 L 1341.25 1936.949219 C 1341.320312 1932.988281 1344.589844 1929.828125 1348.558594 1929.898438 C 1352.519531 1929.96875 1355.671875 1933.238281 1355.601562 1937.199219 L 1351.898438 2145.730469 C 1351.828125 2149.691406 1348.558594 2152.847656 1344.601562 2152.777344 C 1340.640625 2152.707031 1337.480469 2149.4375 1337.558594 2145.476562 Z M 1337.558594 2145.476562 "/>
<path fill-rule="nonzero" fill="rgb(48.242188%, 29.026794%, 0%)" fill-opacity="1" d="M 1343.980469 1942.011719 L 1259.53125 1897.230469 C 1256.03125 1895.371094 1254.699219 1891.03125 1256.558594 1887.53125 C 1258.410156 1884.03125 1262.75 1882.691406 1266.25 1884.550781 L 1350.710938 1929.328125 C 1354.210938 1931.191406 1355.539062 1935.53125 1353.679688 1939.03125 C 1351.828125 1942.53125 1347.480469 1943.859375 1343.980469 1942.011719 Z M 1343.980469 1942.011719 "/>
<path fill-rule="nonzero" fill="rgb(48.242188%, 29.026794%, 0%)" fill-opacity="1" d="M 677.902344 1784.621094 C 843.433594 1864.769531 1009.019531 1944.941406 1119.679688 1999.859375 C 1230.390625 2054.796875 1286.171875 2084.476562 1341.921875 2114.140625 C 1345.421875 2116.003906 1346.75 2120.347656 1344.878906 2123.84375 C 1343.019531 2127.34375 1338.679688 2128.667969 1335.179688 2126.808594 C 1279.5 2097.179688 1223.851562 2067.566406 1113.308594 2012.707031 C 1002.710938 1957.820312 837.214844 1877.691406 671.648438 1797.53125 C 668.085938 1795.808594 666.59375 1791.519531 668.320312 1787.949219 C 670.046875 1784.390625 674.335938 1782.890625 677.902344 1784.621094 Z M 677.902344 1784.621094 "/>
<path fill-rule="nonzero" fill="rgb(48.242188%, 29.026794%, 0%)" fill-opacity="1" d="M 660.375 1817.488281 L 666.398438 1790.21875 C 667.253906 1786.351562 671.082031 1783.910156 674.953125 1784.761719 C 678.820312 1785.621094 681.265625 1789.441406 680.410156 1793.308594 L 674.386719 1820.578125 C 673.53125 1824.449219 669.703125 1826.890625 665.835938 1826.039062 C 661.964844 1825.179688 659.523438 1821.359375 660.375 1817.488281 Z M 660.375 1817.488281 "/>
<path fill-rule="nonzero" fill="rgb(48.242188%, 29.026794%, 0%)" fill-opacity="1" d="M 702.660156 1678.679688 L 971.277344 1808.109375 C 972.023438 1808.460938 972.339844 1809.359375 971.980469 1810.109375 C 971.617188 1810.859375 970.71875 1811.179688 969.96875 1810.820312 L 701.355469 1681.390625 C 700.605469 1681.03125 700.292969 1680.140625 700.652344 1679.390625 C 701.015625 1678.640625 701.914062 1678.320312 702.660156 1678.679688 Z M 702.660156 1678.679688 "/>
<path fill-rule="nonzero" fill="rgb(48.242188%, 29.026794%, 0%)" fill-opacity="1" d="M 712.355469 1755.871094 L 1346.621094 2080.921875 C 1351.25 2083.296875 1353.089844 2088.984375 1350.710938 2093.621094 C 1348.328125 2098.253906 1342.648438 2100.089844 1338.011719 2097.710938 L 703.75 1772.660156 C 699.113281 1770.28125 697.28125 1764.601562 699.660156 1759.960938 C 702.035156 1755.328125 707.71875 1753.5 712.355469 1755.871094 Z M 712.355469 1755.871094 "/>
<path fill-rule="nonzero" fill="rgb(48.242188%, 29.026794%, 0%)" fill-opacity="1" d="M 1334.570312 2056.980469 L 1038.21875 1912.339844 C 1033.539062 1910.050781 1031.589844 1904.410156 1033.878906 1899.71875 C 1036.160156 1895.039062 1041.808594 1893.101562 1046.5 1895.378906 L 1342.839844 2040.027344 C 1347.519531 2042.3125 1349.460938 2047.960938 1347.179688 2052.644531 C 1344.890625 2057.324219 1339.25 2059.269531 1334.570312 2056.980469 Z M 1334.570312 2056.980469 "/>
<path fill-rule="nonzero" fill="rgb(48.242188%, 29.026794%, 0%)" fill-opacity="1" d="M 1030.339844 1908.839844 L 703.308594 1738.109375 C 698.691406 1735.699219 696.902344 1730 699.3125 1725.378906 C 701.722656 1720.769531 707.421875 1718.980469 712.039062 1721.390625 L 1039.070312 1892.121094 C 1043.691406 1894.53125 1045.480469 1900.230469 1043.070312 1904.839844 C 1040.660156 1909.460938 1034.960938 1911.25 1030.339844 1908.839844 Z M 1030.339844 1908.839844 "/>
<path fill-rule="nonzero" fill="rgb(48.242188%, 29.026794%, 0%)" fill-opacity="1" d="M 704.695312 1702.121094 L 999.410156 1846.871094 C 1000.808594 1847.558594 1001.378906 1849.238281 1000.691406 1850.640625 C 1000.011719 1852.03125 998.324219 1852.609375 996.929688 1851.921875 L 702.214844 1707.171875 C 700.820312 1706.480469 700.246094 1704.800781 700.929688 1703.410156 C 701.617188 1702.011719 703.300781 1701.429688 704.695312 1702.121094 Z M 704.695312 1702.121094 "/>
<path fill-rule="nonzero" fill="rgb(48.242188%, 29.026794%, 0%)" fill-opacity="1" d="M 1092.199219 1894.210938 L 1346.378906 2016.671875 C 1347.78125 2017.34375 1348.371094 2019.027344 1347.691406 2020.425781 C 1347.019531 2021.828125 1345.339844 2022.414062 1343.929688 2021.742188 L 1089.761719 1899.28125 C 1088.359375 1898.601562 1087.769531 1896.921875 1088.449219 1895.519531 C 1089.121094 1894.121094 1090.808594 1893.53125 1092.199219 1894.210938 Z M 1092.199219 1894.210938 "/>
<path fill-rule="nonzero" fill="rgb(48.242188%, 29.026794%, 0%)" fill-opacity="1" d="M 1343.609375 1969.46875 L 1185.53125 1892.058594 C 1184.128906 1891.371094 1183.558594 1889.691406 1184.238281 1888.289062 C 1184.921875 1886.890625 1186.609375 1886.320312 1188 1887 L 1346.078125 1964.410156 C 1347.480469 1965.101562 1348.058594 1966.78125 1347.371094 1968.179688 C 1346.691406 1969.570312 1345 1970.148438 1343.609375 1969.46875 Z M 1343.609375 1969.46875 "/>
<path fill-rule="nonzero" fill="rgb(47.851562%, 29.026794%, 0%)" fill-opacity="1" d="M 1350.808594 1929.511719 L 1689.011719 1848.101562 C 1693.441406 1847.03125 1697.898438 1849.761719 1698.96875 1854.191406 C 1700.03125 1858.621094 1697.308594 1863.070312 1692.878906 1864.140625 L 1354.671875 1945.550781 C 1350.238281 1946.621094 1345.789062 1943.890625 1344.71875 1939.460938 C 1343.660156 1935.03125 1346.378906 1930.570312 1350.808594 1929.511719 Z M 1350.808594 1929.511719 "/>
<path fill-rule="nonzero" fill="rgb(62.693787%, 42.358398%, 97.65625%)" fill-opacity="1" d="M 815.503906 1363.148438 L 853.644531 1359.390625 C 965.617188 1348.011719 1273.878906 1319.558594 1778.429688 1274.03125 L 2235.839844 1608.121094 L 1034.039062 1689.75 L 815.503906 1363.148438 "/>
<path fill-rule="nonzero" fill="rgb(51.367188%, 30.979919%, 87.109375%)" fill-opacity="1" d="M 1037.429688 1698.339844 L 1040.539062 1795.980469 L 1043.648438 1893.609375 L 2237.980469 1816.148438 C 2239.898438 1749.488281 2241.820312 1682.828125 2243.730469 1616.160156 L 1037.429688 1698.339844 "/>
<path fill-rule="nonzero" fill="rgb(48.242188%, 29.026794%, 0%)" fill-opacity="1" d="M 820.71875 1361.878906 L 1039.359375 1688.03125 L 1032.910156 1684.859375 L 2243.5 1601.921875 L 2239.839844 1614.929688 L 1771.71875 1282.671875 L 1776.53125 1283.960938 L 1035.089844 1351.96875 L 1035.121094 1351.960938 L 815.445312 1373.019531 L 820.71875 1361.878906 M 808.800781 1369.871094 C 807.394531 1367.769531 807.195312 1365.089844 808.277344 1362.808594 C 809.355469 1360.519531 811.558594 1358.980469 814.074219 1358.730469 L 1033.75 1337.679688 L 1033.78125 1337.679688 L 1775.21875 1269.679688 C 1776.921875 1269.519531 1778.628906 1269.980469 1780.019531 1270.96875 L 2248.148438 1603.21875 C 2250.621094 1604.980469 2251.71875 1608.101562 2250.898438 1611.019531 C 2250.078125 1613.941406 2247.511719 1616.019531 2244.480469 1616.230469 L 1033.890625 1699.179688 C 1031.328125 1699.359375 1028.871094 1698.148438 1027.441406 1696.019531 Z M 808.800781 1369.871094 "/>
<path fill-rule="nonzero" fill="rgb(48.242188%, 29.026794%, 0%)" fill-opacity="1" d="M 2252.53125 1616.230469 L 2243.589844 1815.5 C 2243.429688 1819.140625 2240.558594 1822.078125 2236.929688 1822.339844 L 1036.890625 1907.359375 C 1034.320312 1907.539062 1031.839844 1906.320312 1030.410156 1904.171875 L 801.066406 1558.121094 C 799.84375 1556.28125 799.539062 1553.980469 800.242188 1551.878906 L 843.359375 1423 C 844.617188 1419.238281 848.683594 1417.210938 852.441406 1418.46875 C 856.199219 1419.730469 858.222656 1423.789062 856.96875 1427.550781 L 813.847656 1556.429688 L 813.023438 1550.191406 L 1042.371094 1896.238281 L 1035.878906 1893.050781 L 2235.921875 1808.019531 L 2229.261719 1814.859375 L 2238.199219 1615.589844 C 2238.371094 1611.628906 2241.730469 1608.570312 2245.679688 1608.75 C 2249.640625 1608.921875 2252.710938 1612.269531 2252.53125 1616.230469 Z M 2252.53125 1616.230469 "/>
<path fill-rule="nonzero" fill="rgb(48.242188%, 29.026794%, 0%)" fill-opacity="1" d="M 1030.28125 1894.421875 L 1025.839844 1696.820312 C 1025.75 1692.859375 1028.878906 1689.570312 1032.839844 1689.480469 C 1036.808594 1689.390625 1040.089844 1692.53125 1040.179688 1696.5 L 1044.621094 1894.101562 C 1044.710938 1898.058594 1041.570312 1901.339844 1037.609375 1901.429688 C 1033.648438 1901.519531 1030.371094 1898.378906 1030.28125 1894.421875 Z M 1030.28125 1894.421875 "/>
<path fill-rule="nonzero" fill="rgb(47.851562%, 29.026794%, 0%)" fill-opacity="1" d="M 1026.25 1860.109375 L 811.742188 1535.941406 C 809.40625 1532.410156 810.375 1527.660156 813.902344 1525.320312 C 817.429688 1522.988281 822.183594 1523.949219 824.515625 1527.480469 L 1039.03125 1851.660156 C 1041.359375 1855.191406 1040.390625 1859.941406 1036.871094 1862.269531 C 1033.339844 1864.609375 1028.589844 1863.640625 1026.25 1860.109375 Z M 1026.25 1860.109375 "/>
<path fill-rule="nonzero" fill="rgb(47.851562%, 29.026794%, 0%)" fill-opacity="1" d="M 839.890625 1478.070312 L 1039.179688 1779.578125 C 1041.511719 1783.109375 1040.539062 1787.859375 1037.011719 1790.191406 C 1033.480469 1792.53125 1028.730469 1791.558594 1026.390625 1788.03125 L 827.109375 1486.511719 C 824.777344 1482.980469 825.75 1478.230469 829.277344 1475.898438 C 832.804688 1473.570312 837.558594 1474.539062 839.890625 1478.070312 Z M 839.890625 1478.070312 "/>
<path fill-rule="nonzero" fill="rgb(47.851562%, 29.026794%, 0%)" fill-opacity="1" d="M 1028.640625 1727.699219 L 836.964844 1449.160156 C 836.09375 1447.890625 836.414062 1446.160156 837.683594 1445.289062 C 838.949219 1444.410156 840.683594 1444.730469 841.554688 1446 L 1033.230469 1724.539062 C 1034.109375 1725.808594 1033.789062 1727.539062 1032.519531 1728.410156 C 1031.25 1729.28125 1029.519531 1728.960938 1028.640625 1727.699219 Z M 1028.640625 1727.699219 "/>
<path fill-rule="nonzero" fill="rgb(47.851562%, 29.026794%, 0%)" fill-opacity="1" d="M 1032.96875 1819.511719 L 821.164062 1509.789062 C 820.296875 1508.519531 820.621094 1506.78125 821.890625 1505.910156 C 823.164062 1505.039062 824.894531 1505.371094 825.765625 1506.640625 L 1037.570312 1816.359375 C 1038.429688 1817.640625 1038.109375 1819.371094 1036.839844 1820.238281 C 1035.570312 1821.109375 1033.839844 1820.78125 1032.96875 1819.511719 Z M 1032.96875 1819.511719 "/>
</svg>
