<?xml version="1.0" encoding="UTF-8"?>
<svg xmlns="http://www.w3.org/2000/svg" xmlns:xlink="http://www.w3.org/1999/xlink" width="2000" height="2000" viewBox="0 0 2000 2000">
 <title>Your Comprehensive QA Hub</title>
<path fill-rule="evenodd" fill="rgb(95.701599%, 96.875%, 98.046875%)" fill-opacity="1" d="M 1908.238281 1915.15625 L 1889.179688 1915.15625 C 1888.300781 1915.15625 1887.589844 1915.871094 1887.589844 1916.746094 L 1887.589844 1935.800781 C 1887.589844 1936.679688 1888.300781 1937.394531 1889.179688 1937.394531 L 1908.238281 1937.394531 C 1909.109375 1937.394531 1909.828125 1936.679688 1909.828125 1935.800781 L 1909.828125 1916.746094 C 1909.828125 1915.871094 1909.109375 1915.15625 1908.238281 1915.15625 "/>
<path fill-rule="evenodd" fill="rgb(95.701599%, 96.875%, 98.046875%)" fill-opacity="1" d="M 1865.28125 1916.171875 L 1847.089844 1916.171875 C 1846.261719 1916.171875 1845.578125 1916.855469 1845.578125 1917.691406 L 1845.578125 1935.875 C 1845.578125 1936.710938 1846.261719 1937.394531 1847.089844 1937.394531 L 1865.28125 1937.394531 C 1866.109375 1937.394531 1866.800781 1936.710938 1866.800781 1935.875 L 1866.800781 1917.691406 C 1866.800781 1916.855469 1866.109375 1916.171875 1865.28125 1916.171875 "/>
<path fill-rule="evenodd" fill="rgb(95.701599%, 96.875%, 98.046875%)" fill-opacity="1" d="M 1822.320312 1917.1875 L 1805.011719 1917.1875 C 1804.210938 1917.1875 1803.558594 1917.839844 1803.558594 1918.636719 L 1803.558594 1935.949219 C 1803.558594 1936.742188 1804.210938 1937.394531 1805.011719 1937.394531 L 1822.320312 1937.394531 C 1823.121094 1937.394531 1823.769531 1936.742188 1823.769531 1935.949219 L 1823.769531 1918.636719 C 1823.769531 1917.839844 1823.121094 1917.1875 1822.320312 1917.1875 "/>
<path fill-rule="evenodd" fill="rgb(95.701599%, 96.875%, 98.046875%)" fill-opacity="1" d="M 1779.371094 1918.207031 L 1762.929688 1918.207031 C 1762.171875 1918.207031 1761.550781 1918.824219 1761.550781 1919.582031 L 1761.550781 1936.019531 C 1761.550781 1936.777344 1762.171875 1937.394531 1762.929688 1937.394531 L 1779.371094 1937.394531 C 1780.121094 1937.394531 1780.738281 1936.777344 1780.738281 1936.019531 L 1780.738281 1919.582031 C 1780.738281 1918.824219 1780.121094 1918.207031 1779.371094 1918.207031 "/>
<path fill-rule="evenodd" fill="rgb(95.701599%, 96.875%, 98.046875%)" fill-opacity="1" d="M 1736.410156 1919.222656 L 1720.839844 1919.222656 C 1720.128906 1919.222656 1719.539062 1919.808594 1719.539062 1920.523438 L 1719.539062 1936.09375 C 1719.539062 1936.808594 1720.128906 1937.394531 1720.839844 1937.394531 L 1736.410156 1937.394531 C 1737.128906 1937.394531 1737.710938 1936.808594 1737.710938 1936.09375 L 1737.710938 1920.523438 C 1737.710938 1919.808594 1737.128906 1919.222656 1736.410156 1919.222656 "/>
<path fill-rule="evenodd" fill="rgb(95.701599%, 96.875%, 98.046875%)" fill-opacity="1" d="M 1693.460938 1920.238281 L 1678.761719 1920.238281 C 1678.078125 1920.238281 1677.53125 1920.792969 1677.53125 1921.46875 L 1677.53125 1936.167969 C 1677.53125 1936.84375 1678.078125 1937.394531 1678.761719 1937.394531 L 1693.460938 1937.394531 C 1694.128906 1937.394531 1694.679688 1936.84375 1694.679688 1936.167969 L 1694.679688 1921.46875 C 1694.679688 1920.792969 1694.128906 1920.238281 1693.460938 1920.238281 "/>
<path fill-rule="evenodd" fill="rgb(95.701599%, 96.875%, 98.046875%)" fill-opacity="1" d="M 1650.5 1921.257812 L 1636.671875 1921.257812 C 1636.039062 1921.257812 1635.519531 1921.777344 1635.519531 1922.414062 L 1635.519531 1936.238281 C 1635.519531 1936.875 1636.039062 1937.394531 1636.671875 1937.394531 L 1650.5 1937.394531 C 1651.140625 1937.394531 1651.648438 1936.875 1651.648438 1936.238281 L 1651.648438 1922.414062 C 1651.648438 1921.777344 1651.140625 1921.257812 1650.5 1921.257812 "/>
<path fill-rule="evenodd" fill="rgb(95.701599%, 96.875%, 98.046875%)" fill-opacity="1" d="M 1607.539062 1922.273438 L 1594.589844 1922.273438 C 1593.988281 1922.273438 1593.511719 1922.761719 1593.511719 1923.355469 L 1593.511719 1936.3125 C 1593.511719 1936.90625 1593.988281 1937.394531 1594.589844 1937.394531 L 1607.539062 1937.394531 C 1608.140625 1937.394531 1608.628906 1936.90625 1608.628906 1936.3125 L 1608.628906 1923.355469 C 1608.628906 1922.761719 1608.140625 1922.273438 1607.539062 1922.273438 "/>
<path fill-rule="evenodd" fill="rgb(95.701599%, 96.875%, 98.046875%)" fill-opacity="1" d="M 1564.589844 1923.292969 L 1552.5 1923.292969 C 1551.949219 1923.292969 1551.488281 1923.746094 1551.488281 1924.300781 L 1551.488281 1936.386719 C 1551.488281 1936.941406 1551.949219 1937.394531 1552.5 1937.394531 L 1564.589844 1937.394531 C 1565.140625 1937.394531 1565.601562 1936.941406 1565.601562 1936.386719 L 1565.601562 1924.300781 C 1565.601562 1923.746094 1565.140625 1923.292969 1564.589844 1923.292969 "/>
<path fill-rule="evenodd" fill="rgb(78.514099%, 80.076599%, 90.234375%)" fill-opacity="1" d="M 1030.261719 805.128906 C 1123.929688 805.128906 1199.871094 881.058594 1199.871094 974.738281 C 1199.871094 1068.40625 1123.929688 1144.34375 1030.261719 1144.34375 C 936.585938 1144.34375 860.648438 1068.40625 860.648438 974.738281 C 860.648438 881.058594 936.585938 805.128906 1030.261719 805.128906 "/>
<path fill-rule="evenodd" fill="rgb(78.514099%, 80.076599%, 90.234375%)" fill-opacity="1" d="M 446.816406 503.480469 C 498.039062 503.480469 539.570312 545.011719 539.570312 596.238281 C 539.570312 647.460938 498.039062 688.988281 446.816406 688.988281 C 395.589844 688.988281 354.058594 647.460938 354.058594 596.238281 C 354.058594 545.011719 395.589844 503.480469 446.816406 503.480469 "/>
<path fill-rule="evenodd" fill="rgb(78.514099%, 80.076599%, 90.234375%)" fill-opacity="1" d="M 824.984375 278.710938 C 876.210938 278.710938 917.738281 320.238281 917.738281 371.46875 C 917.738281 422.699219 876.210938 464.21875 824.984375 464.21875 C 773.757812 464.21875 732.230469 422.699219 732.230469 371.46875 C 732.230469 320.238281 773.757812 278.710938 824.984375 278.710938 "/>
<path fill-rule="evenodd" fill="rgb(78.514099%, 80.076599%, 90.234375%)" fill-opacity="1" d="M 1110.121094 493.910156 C 1161.351562 493.910156 1202.871094 535.441406 1202.871094 586.660156 C 1202.871094 637.890625 1161.351562 679.421875 1110.121094 679.421875 C 1058.890625 679.421875 1017.371094 637.890625 1017.371094 586.660156 C 1017.371094 535.441406 1058.890625 493.910156 1110.121094 493.910156 "/>
<path fill-rule="evenodd" fill="rgb(78.514099%, 80.076599%, 90.234375%)" fill-opacity="1" d="M 1030.160156 880.628906 C 1081.390625 880.628906 1122.921875 922.160156 1122.921875 973.390625 C 1122.921875 1024.613281 1081.390625 1066.140625 1030.160156 1066.140625 C 978.9375 1066.140625 937.410156 1024.613281 937.410156 973.390625 C 937.410156 922.160156 978.9375 880.628906 1030.160156 880.628906 "/>
<path fill-rule="evenodd" fill="rgb(78.514099%, 80.076599%, 90.234375%)" fill-opacity="1" d="M 1438.109375 307.539062 C 1489.339844 307.539062 1530.871094 349.070312 1530.871094 400.300781 C 1530.871094 451.519531 1489.339844 493.050781 1438.109375 493.050781 C 1386.890625 493.050781 1345.359375 451.519531 1345.359375 400.300781 C 1345.359375 349.070312 1386.890625 307.539062 1438.109375 307.539062 "/>
<path fill-rule="evenodd" fill="rgb(78.514099%, 80.076599%, 90.234375%)" fill-opacity="1" d="M 1648.660156 611.398438 C 1699.890625 611.398438 1741.410156 652.929688 1741.410156 704.160156 C 1741.410156 755.378906 1699.890625 796.910156 1648.660156 796.910156 C 1597.429688 796.910156 1555.910156 755.378906 1555.910156 704.160156 C 1555.910156 652.929688 1597.429688 611.398438 1648.660156 611.398438 "/>
<path fill-rule="evenodd" fill="rgb(78.514099%, 80.076599%, 90.234375%)" fill-opacity="1" d="M 1482.671875 866.078125 C 1533.898438 866.078125 1575.429688 907.609375 1575.429688 958.839844 C 1575.429688 1010.0625 1533.898438 1051.589844 1482.671875 1051.589844 C 1431.441406 1051.589844 1389.921875 1010.0625 1389.921875 958.839844 C 1389.921875 907.609375 1431.441406 866.078125 1482.671875 866.078125 "/>
<path fill-rule="evenodd" fill="rgb(78.514099%, 80.076599%, 90.234375%)" fill-opacity="1" d="M 1575.21875 1213.785156 C 1626.449219 1213.785156 1667.96875 1255.316406 1667.96875 1306.542969 C 1667.96875 1357.769531 1626.449219 1399.296875 1575.21875 1399.296875 C 1523.988281 1399.296875 1482.460938 1357.769531 1482.460938 1306.542969 C 1482.460938 1255.316406 1523.988281 1213.785156 1575.21875 1213.785156 "/>
<path fill-rule="evenodd" fill="rgb(78.514099%, 80.076599%, 90.234375%)" fill-opacity="1" d="M 1251.25 1430.253906 C 1302.46875 1430.253906 1344 1471.78125 1344 1523.007812 C 1344 1574.234375 1302.46875 1615.761719 1251.25 1615.761719 C 1200.019531 1615.761719 1158.488281 1574.234375 1158.488281 1523.007812 C 1158.488281 1471.78125 1200.019531 1430.253906 1251.25 1430.253906 "/>
<path fill-rule="evenodd" fill="rgb(78.514099%, 80.076599%, 90.234375%)" fill-opacity="1" d="M 955.425781 1253.46875 C 1006.648438 1253.46875 1048.179688 1294.996094 1048.179688 1346.226562 C 1048.179688 1397.453125 1006.648438 1438.980469 955.425781 1438.980469 C 904.199219 1438.980469 862.671875 1397.453125 862.671875 1346.226562 C 862.671875 1294.996094 904.199219 1253.46875 955.425781 1253.46875 "/>
<path fill-rule="evenodd" fill="rgb(78.514099%, 80.076599%, 90.234375%)" fill-opacity="1" d="M 615.125 868.730469 C 666.351562 868.730469 707.878906 910.261719 707.878906 961.488281 C 707.878906 1012.710938 666.351562 1054.238281 615.125 1054.238281 C 563.898438 1054.238281 522.371094 1012.710938 522.371094 961.488281 C 522.371094 910.261719 563.898438 868.730469 615.125 868.730469 "/>
<path fill-rule="evenodd" fill="rgb(78.514099%, 80.076599%, 90.234375%)" fill-opacity="1" d="M 412.796875 1109.585938 C 464.023438 1109.585938 505.550781 1151.113281 505.550781 1202.339844 C 505.550781 1253.566406 464.023438 1295.09375 412.796875 1295.09375 C 361.566406 1295.09375 320.039062 1253.566406 320.039062 1202.339844 C 320.039062 1151.113281 361.566406 1109.585938 412.796875 1109.585938 "/>
<path fill-rule="evenodd" fill="rgb(78.514099%, 80.076599%, 90.234375%)" fill-opacity="1" d="M 632.097656 1369.957031 C 683.324219 1369.957031 724.851562 1411.484375 724.851562 1462.710938 C 724.851562 1513.9375 683.324219 1555.464844 632.097656 1555.464844 C 580.871094 1555.464844 539.34375 1513.9375 539.34375 1462.710938 C 539.34375 1411.484375 580.871094 1369.957031 632.097656 1369.957031 "/>
<path fill-rule="evenodd" fill="rgb(78.514099%, 80.076599%, 90.234375%)" fill-opacity="1" d="M 1470.691406 675.949219 L 1560.28125 675.949219 C 1557.441406 684.839844 1555.910156 694.320312 1555.910156 704.160156 C 1555.910156 716.660156 1558.378906 728.578125 1562.871094 739.460938 L 1332.238281 739.460938 L 1190.191406 918.171875 C 1182.511719 896.46875 1170.550781 876.789062 1155.308594 860.171875 L 1290.941406 689.539062 C 1296.679688 681.320312 1306.210938 675.949219 1316.988281 675.949219 L 1407.179688 675.949219 L 1407.179688 487.761719 C 1416.859375 491.179688 1427.269531 493.050781 1438.109375 493.050781 C 1449.578125 493.050781 1460.558594 490.96875 1470.691406 487.160156 Z M 1195.191406 935.078125 L 1392.988281 935.078125 C 1390.988281 942.660156 1389.921875 950.621094 1389.921875 958.839844 C 1389.921875 973.058594 1393.128906 986.539062 1398.851562 998.589844 L 1198.191406 998.589844 C 1199.289062 990.800781 1199.871094 982.828125 1199.871094 974.738281 C 1199.871094 961.078125 1198.238281 947.800781 1195.191406 935.078125 Z M 1184.398438 1045.5625 L 1395.089844 1274.785156 L 1488.039062 1274.785156 C 1484.441406 1284.691406 1482.460938 1295.386719 1482.460938 1306.542969 C 1482.460938 1317.699219 1484.441406 1328.394531 1488.039062 1338.300781 L 1381.230469 1338.300781 C 1371.261719 1338.300781 1362.371094 1333.703125 1356.550781 1326.523438 L 1146.621094 1098.121094 C 1162.351562 1083.273438 1175.25 1065.457031 1184.398438 1045.5625 Z M 973.507812 814.871094 L 795.804688 642.808594 C 788.828125 636.980469 784.386719 628.21875 784.386719 618.421875 L 784.386719 454.890625 C 796.648438 460.871094 810.425781 464.21875 824.984375 464.21875 C 832.894531 464.21875 840.570312 463.230469 847.902344 461.371094 L 847.902344 605.089844 L 1056.609375 807.171875 C 1048.019531 805.828125 1039.21875 805.128906 1030.261719 805.128906 C 1010.351562 805.128906 991.253906 808.570312 973.507812 814.871094 Z M 1078.359375 812.058594 L 1078.359375 673.839844 C 1088.269531 677.449219 1098.960938 679.421875 1110.121094 679.421875 C 1121.28125 679.421875 1131.96875 677.449219 1141.878906 673.839844 L 1141.878906 847.039062 C 1123.710938 831.148438 1102.121094 819.070312 1078.359375 812.058594 Z M 599.292969 1375.933594 L 599.292969 1230.507812 L 501.191406 1230.507812 C 504.019531 1221.621094 505.550781 1212.160156 505.550781 1202.339844 C 505.550781 1189.824219 503.0625 1177.886719 498.570312 1166.992188 L 697.328125 1166.992188 L 862.359375 998.820312 C 865.761719 1022.746094 874.15625 1045.0625 886.453125 1064.6875 L 734.789062 1219.238281 C 728.964844 1226.128906 720.261719 1230.507812 710.53125 1230.507812 L 662.804688 1230.507812 L 662.804688 1375.167969 C 653.195312 1371.796875 642.863281 1369.957031 632.097656 1369.957031 C 620.546875 1369.957031 609.492188 1372.074219 599.292969 1375.933594 Z M 861.523438 992.058594 L 702.714844 992.058594 C 706.058594 982.488281 707.878906 972.199219 707.878906 961.488281 C 707.878906 949.878906 705.742188 938.78125 701.855469 928.550781 L 867.019531 928.550781 C 862.871094 943.230469 860.648438 958.71875 860.648438 974.738281 C 860.648438 980.578125 860.941406 986.371094 861.523438 992.058594 Z M 896.683594 870.210938 C 909.847656 853.410156 926.117188 839.160156 944.621094 828.308594 L 687.003906 585.949219 C 681.203125 579.691406 672.914062 575.78125 663.714844 575.78125 L 537.300781 575.78125 C 538.78125 582.359375 539.570312 589.210938 539.570312 596.238281 C 539.570312 611.78125 535.742188 626.421875 528.988281 639.289062 L 651.234375 639.289062 Z M 985.089844 1138.253906 L 985.089844 1258.316406 C 975.777344 1255.175781 965.800781 1253.46875 955.425781 1253.46875 C 943.480469 1253.46875 932.0625 1255.730469 921.578125 1259.84375 L 921.578125 1104.941406 C 939.875 1120.230469 961.449219 1131.734375 985.089844 1138.253906 Z M 1213.371094 1438.316406 C 1224.941406 1433.136719 1237.75 1430.253906 1251.25 1430.253906 C 1260.140625 1430.253906 1268.738281 1431.507812 1276.890625 1433.84375 L 1276.890625 1306.542969 C 1276.890625 1298.105469 1273.601562 1290.441406 1268.230469 1284.753906 L 1125.671875 1114.972656 C 1107.53125 1127.339844 1086.871094 1136.277344 1064.621094 1140.859375 L 1213.371094 1318.023438 L 1213.371094 1438.316406 "/>
<path fill="none" stroke-width="380.001" stroke-linecap="round" stroke-linejoin="round" stroke="rgb(47.459412%, 50.976562%, 72.851562%)" stroke-opacity="1" stroke-miterlimit="22.9256" d="M 9726.5625 11420.703125 C 10663.28125 11420.703125 11422.617188 10661.289062 11422.617188 9724.648438 C 11422.617188 8787.890625 10663.28125 8028.554688 9726.5625 8028.554688 C 8789.84375 8028.554688 8030.46875 8787.890625 8030.46875 9724.648438 C 8030.46875 10661.289062 8789.84375 11420.703125 9726.5625 11420.703125 Z M 9726.5625 11420.703125 " transform="matrix(0.1, 0, 0, -0.1, 0, 2000)"/>
<path fill="none" stroke-width="380.001" stroke-linecap="round" stroke-linejoin="round" stroke="rgb(47.459412%, 50.976562%, 72.851562%)" stroke-opacity="1" stroke-miterlimit="22.9256" d="M 3892.148438 14437.109375 C 4404.375 14437.109375 4819.6875 14021.914062 4819.6875 13509.609375 C 4819.6875 12997.304688 4404.375 12582.109375 3892.148438 12582.109375 C 3379.84375 12582.109375 2964.570312 12997.304688 2964.570312 13509.609375 C 2964.570312 14021.914062 3379.84375 14437.109375 3892.148438 14437.109375 Z M 3892.148438 14437.109375 " transform="matrix(0.1, 0, 0, -0.1, 0, 2000)"/>
<path fill="none" stroke-width="380.001" stroke-linecap="round" stroke-linejoin="round" stroke="rgb(47.459412%, 50.976562%, 72.851562%)" stroke-opacity="1" stroke-miterlimit="22.9256" d="M 7673.828125 16684.804688 C 8186.09375 16684.804688 8601.367188 16269.609375 8601.367188 15757.304688 C 8601.367188 15245 8186.09375 14829.6875 7673.828125 14829.6875 C 7161.5625 14829.6875 6746.289062 15245 6746.289062 15757.304688 C 6746.289062 16269.609375 7161.5625 16684.804688 7673.828125 16684.804688 Z M 7673.828125 16684.804688 " transform="matrix(0.1, 0, 0, -0.1, 0, 2000)"/>
<path fill="none" stroke-width="380.001" stroke-linecap="round" stroke-linejoin="round" stroke="rgb(47.459412%, 50.976562%, 72.851562%)" stroke-opacity="1" stroke-miterlimit="22.9256" d="M 10525.195312 14532.890625 C 11037.382812 14532.890625 11452.695312 14117.617188 11452.695312 13605.3125 C 11452.695312 13093.085938 11037.382812 12677.8125 10525.195312 12677.8125 C 10012.890625 12677.8125 9597.65625 13093.085938 9597.65625 13605.3125 C 9597.65625 14117.617188 10012.890625 14532.890625 10525.195312 14532.890625 Z M 10525.195312 14532.890625 " transform="matrix(0.1, 0, 0, -0.1, 0, 2000)"/>
<path fill="none" stroke-width="380.001" stroke-linecap="round" stroke-linejoin="round" stroke="rgb(47.459412%, 50.976562%, 72.851562%)" stroke-opacity="1" stroke-miterlimit="22.9256" d="M 9725.625 10665.585938 C 10237.890625 10665.585938 10653.203125 10250.390625 10653.203125 9738.125 C 10653.203125 9225.859375 10237.890625 8810.546875 9725.625 8810.546875 C 9213.359375 8810.546875 8798.085938 9225.859375 8798.085938 9738.125 C 8798.085938 10250.390625 9213.359375 10665.585938 9725.625 10665.585938 Z M 9725.625 10665.585938 " transform="matrix(0.1, 0, 0, -0.1, 0, 2000)"/>
<path fill="none" stroke-width="380.001" stroke-linecap="round" stroke-linejoin="round" stroke="rgb(47.459412%, 50.976562%, 72.851562%)" stroke-opacity="1" stroke-miterlimit="22.9256" d="M 13805.117188 16396.601562 C 14317.382812 16396.601562 14732.695312 15981.289062 14732.695312 15468.984375 C 14732.695312 14956.71875 14317.382812 14541.484375 13805.117188 14541.484375 C 13292.8125 14541.484375 12877.617188 14956.71875 12877.617188 15468.984375 C 12877.617188 15981.289062 13292.8125 16396.601562 13805.117188 16396.601562 Z M 13805.117188 16396.601562 " transform="matrix(0.1, 0, 0, -0.1, 0, 2000)"/>
<path fill="none" stroke-width="380.001" stroke-linecap="round" stroke-linejoin="round" stroke="rgb(47.459412%, 50.976562%, 72.851562%)" stroke-opacity="1" stroke-miterlimit="22.9256" d="M 15910.585938 13358.007812 C 16422.8125 13358.007812 16838.085938 12942.695312 16838.085938 12430.390625 C 16838.085938 11918.203125 16422.8125 11502.890625 15910.585938 11502.890625 C 15398.28125 11502.890625 14983.007812 11918.203125 14983.007812 12430.390625 C 14983.007812 12942.695312 15398.28125 13358.007812 15910.585938 13358.007812 Z M 15910.585938 13358.007812 " transform="matrix(0.1, 0, 0, -0.1, 0, 2000)"/>
<path fill="none" stroke-width="380.001" stroke-linecap="round" stroke-linejoin="round" stroke="rgb(47.459412%, 50.976562%, 72.851562%)" stroke-opacity="1" stroke-miterlimit="22.9256" d="M 14250.703125 10811.210938 C 14763.007812 10811.210938 15178.203125 10395.898438 15178.203125 9883.632812 C 15178.203125 9371.367188 14763.007812 8956.09375 14250.703125 8956.09375 C 13738.398438 8956.09375 13323.085938 9371.367188 13323.085938 9883.632812 C 13323.085938 10395.898438 13738.398438 10811.210938 14250.703125 10811.210938 Z M 14250.703125 10811.210938 " transform="matrix(0.1, 0, 0, -0.1, 0, 2000)"/>
<path fill="none" stroke-width="380.001" stroke-linecap="round" stroke-linejoin="round" stroke="rgb(47.459412%, 50.976562%, 72.851562%)" stroke-opacity="1" stroke-miterlimit="22.9256" d="M 15176.210938 7334.101562 C 15688.398438 7334.101562 16103.710938 6918.828125 16103.710938 6406.5625 C 16103.710938 5894.296875 15688.398438 5479.023438 15176.210938 5479.023438 C 14663.90625 5479.023438 14248.59375 5894.296875 14248.59375 6406.5625 C 14248.59375 6918.828125 14663.90625 7334.101562 15176.210938 7334.101562 Z M 15176.210938 7334.101562 " transform="matrix(0.1, 0, 0, -0.1, 0, 2000)"/>
<path fill="none" stroke-width="380.001" stroke-linecap="round" stroke-linejoin="round" stroke="rgb(47.459412%, 50.976562%, 72.851562%)" stroke-opacity="1" stroke-miterlimit="22.9256" d="M 11936.40625 5169.453125 C 12448.710938 5169.453125 12863.984375 4754.179688 12863.984375 4241.914062 C 12863.984375 3729.648438 12448.710938 3314.375 11936.40625 3314.375 C 11424.21875 3314.375 11008.90625 3729.648438 11008.90625 4241.914062 C 11008.90625 4754.179688 11424.21875 5169.453125 11936.40625 5169.453125 Z M 11936.40625 5169.453125 " transform="matrix(0.1, 0, 0, -0.1, 0, 2000)"/>
<path fill="none" stroke-width="380.001" stroke-linecap="round" stroke-linejoin="round" stroke="rgb(47.459412%, 50.976562%, 72.851562%)" stroke-opacity="1" stroke-miterlimit="22.9256" d="M 8978.242188 6937.265625 C 9490.507812 6937.265625 9905.78125 6521.992188 9905.78125 6009.726562 C 9905.78125 5497.460938 9490.507812 5082.1875 8978.242188 5082.1875 C 8465.976562 5082.1875 8050.703125 5497.460938 8050.703125 6009.726562 C 8050.703125 6521.992188 8465.976562 6937.265625 8978.242188 6937.265625 Z M 8978.242188 6937.265625 " transform="matrix(0.1, 0, 0, -0.1, 0, 2000)"/>
<path fill="none" stroke-width="380.001" stroke-linecap="round" stroke-linejoin="round" stroke="rgb(47.459412%, 50.976562%, 72.851562%)" stroke-opacity="1" stroke-miterlimit="22.9256" d="M 5575.234375 10784.6875 C 6087.5 10784.6875 6502.773438 10369.414062 6502.773438 9857.148438 C 6502.773438 9344.84375 6087.5 8929.570312 5575.234375 8929.570312 C 5062.96875 8929.570312 4647.695312 9344.84375 4647.695312 9857.148438 C 4647.695312 10369.414062 5062.96875 10784.6875 5575.234375 10784.6875 Z M 5575.234375 10784.6875 " transform="matrix(0.1, 0, 0, -0.1, 0, 2000)"/>
<path fill="none" stroke-width="380.001" stroke-linecap="round" stroke-linejoin="round" stroke="rgb(47.459412%, 50.976562%, 72.851562%)" stroke-opacity="1" stroke-miterlimit="22.9256" d="M 3551.914062 8376.132812 C 4064.21875 8376.132812 4479.453125 7960.859375 4479.453125 7448.554688 C 4479.453125 6936.289062 4064.21875 6521.015625 3551.914062 6521.015625 C 3039.648438 6521.015625 2624.375 6936.289062 2624.375 7448.554688 C 2624.375 7960.859375 3039.648438 8376.132812 3551.914062 8376.132812 Z M 3551.914062 8376.132812 " transform="matrix(0.1, 0, 0, -0.1, 0, 2000)"/>
<path fill="none" stroke-width="380.001" stroke-linecap="round" stroke-linejoin="round" stroke="rgb(47.459412%, 50.976562%, 72.851562%)" stroke-opacity="1" stroke-miterlimit="22.9256" d="M 5744.960938 5772.421875 C 6257.226562 5772.421875 6672.5 5357.148438 6672.5 4844.882812 C 6672.5 4332.617188 6257.226562 3917.304688 5744.960938 3917.304688 C 5232.695312 3917.304688 4817.421875 4332.617188 4817.421875 4844.882812 C 4817.421875 5357.148438 5232.695312 5772.421875 5744.960938 5772.421875 Z M 5744.960938 5772.421875 " transform="matrix(0.1, 0, 0, -0.1, 0, 2000)"/>
<path fill="none" stroke-width="380.001" stroke-linecap="round" stroke-linejoin="round" stroke="rgb(47.459412%, 50.976562%, 72.851562%)" stroke-opacity="1" stroke-miterlimit="22.9256" d="M 14130.898438 12712.5 L 15026.796875 12712.5 C 14998.398438 12623.59375 14983.007812 12528.789062 14983.007812 12430.390625 C 14983.007812 12305.390625 15007.8125 12186.210938 15052.695312 12077.382812 L 12746.40625 12077.382812 L 11325.898438 10290.3125 C 11249.101562 10507.304688 11129.492188 10704.101562 10977.109375 10870.3125 L 12333.398438 12576.601562 C 12390.78125 12658.789062 12486.09375 12712.5 12593.90625 12712.5 L 13495.78125 12712.5 L 13495.78125 14594.414062 C 13592.5 14560.117188 13696.601562 14541.484375 13805.117188 14541.484375 C 13919.804688 14541.484375 14029.492188 14562.304688 14130.898438 14600.390625 Z M 11375.898438 10121.210938 L 13353.90625 10121.210938 C 13333.90625 10045.390625 13323.085938 9965.742188 13323.085938 9883.632812 C 13323.085938 9741.328125 13355.195312 9606.5625 13412.5 9486.054688 L 11405.898438 9486.054688 C 11416.796875 9564.023438 11422.617188 9643.632812 11422.617188 9724.648438 C 11422.617188 9861.210938 11406.40625 9993.984375 11375.898438 10121.210938 Z M 11268.007812 9016.367188 L 13374.882812 6724.101562 L 14304.414062 6724.101562 C 14268.28125 6625.039062 14248.59375 6518.125 14248.59375 6406.5625 C 14248.59375 6295 14268.28125 6188.046875 14304.414062 6088.984375 L 13236.289062 6088.984375 C 13136.601562 6088.984375 13047.695312 6134.921875 12989.492188 6206.757812 L 10890.195312 8490.78125 C 11047.5 8639.21875 11176.484375 8817.382812 11268.007812 9016.367188 Z M 9159.023438 11323.28125 L 7382.03125 13043.90625 C 7312.265625 13102.1875 7267.851562 13189.804688 7267.851562 13287.8125 L 7267.851562 14923.085938 C 7390.46875 14863.28125 7528.203125 14829.6875 7673.828125 14829.6875 C 7752.929688 14829.6875 7829.6875 14839.6875 7903.007812 14858.28125 L 7903.007812 13421.09375 L 9990.039062 11400.3125 C 9904.140625 11413.710938 9816.171875 11420.703125 9726.5625 11420.703125 C 9527.5 11420.703125 9336.484375 11386.289062 9159.023438 11323.28125 Z M 10207.617188 11351.40625 L 10207.617188 12733.59375 C 10306.71875 12697.5 10413.59375 12677.8125 10525.195312 12677.8125 C 10636.71875 12677.8125 10743.710938 12697.5 10842.695312 12733.59375 L 10842.695312 11001.601562 C 10661.09375 11160.507812 10445.195312 11281.210938 10207.617188 11351.40625 Z M 5416.914062 5712.65625 L 5416.914062 7166.914062 L 4435.898438 7166.914062 C 4464.140625 7255.742188 4479.453125 7350.351562 4479.453125 7448.554688 C 4479.453125 7573.75 4454.648438 7693.085938 4409.6875 7802.03125 L 6397.265625 7802.03125 L 8047.578125 9483.789062 C 8081.601562 9244.53125 8165.546875 9021.328125 8288.515625 8825.117188 L 6771.875 7279.570312 C 6713.632812 7210.664062 6626.5625 7166.914062 6529.296875 7166.914062 L 6052.03125 7166.914062 L 6052.03125 5720.3125 C 5955.898438 5754.023438 5852.617188 5772.421875 5744.960938 5772.421875 C 5629.453125 5772.421875 5518.90625 5751.25 5416.914062 5712.65625 Z M 8039.21875 9551.367188 L 6451.132812 9551.367188 C 6484.53125 9647.109375 6502.773438 9749.960938 6502.773438 9857.148438 C 6502.773438 9973.125 6481.40625 10084.101562 6442.539062 10186.484375 L 8094.140625 10186.484375 C 8052.695312 10039.6875 8030.46875 9884.726562 8030.46875 9724.648438 C 8030.46875 9666.132812 8033.398438 9608.320312 8039.21875 9551.367188 Z M 8390.820312 10769.882812 C 8522.460938 10937.890625 8685.15625 11080.390625 8870.195312 11188.789062 L 6293.984375 13612.5 C 6236.015625 13675.117188 6153.125 13714.21875 6061.09375 13714.21875 L 4796.992188 13714.21875 C 4811.796875 13648.398438 4819.6875 13579.882812 4819.6875 13509.609375 C 4819.6875 13354.21875 4781.40625 13207.695312 4713.828125 13079.101562 L 5936.328125 13079.101562 Z M 9274.882812 8089.453125 L 9274.882812 6888.828125 C 9181.71875 6920.234375 9081.992188 6937.265625 8978.242188 6937.265625 C 8858.789062 6937.265625 8744.609375 6914.6875 8639.765625 6873.554688 L 8639.765625 8422.578125 C 8822.734375 8269.648438 9038.476562 8154.648438 9274.882812 8089.453125 Z M 11557.695312 5088.828125 C 11673.398438 5140.625 11801.484375 5169.453125 11936.40625 5169.453125 C 12025.390625 5169.453125 12111.40625 5156.914062 12192.8125 5133.515625 L 12192.8125 6406.5625 C 12192.8125 6490.898438 12159.882812 6567.578125 12106.289062 6624.453125 L 10680.703125 8322.265625 C 10499.296875 8198.59375 10292.695312 8109.179688 10070.195312 8063.398438 L 11557.695312 6291.757812 Z M 11557.695312 5088.828125 " transform="matrix(0.1, 0, 0, -0.1, 0, 2000)"/>
</svg>
